<?xml version="1.0" encoding="utf-8"?>
<!-- Generator: Adobe Illustrator 26.3.0, SVG Export Plug-In . SVG Version: 6.00 Build 0)  -->
<svg version="1.1" id="Layer_1" xmlns="http://www.w3.org/2000/svg" xmlns:xlink="http://www.w3.org/1999/xlink" x="0px" y="0px"
	 viewBox="0 0 500 400" style="enable-background:new 0 0 500 400;" xml:space="preserve">
<style type="text/css">
	.st0{fill:#D1D3D4;stroke:#FFFFFF;stroke-miterlimit:10;}
	.st1{fill:#F1F2F2;stroke:#F1F2F2;stroke-width:0.5;stroke-miterlimit:10;}
	.st2{fill:#F1F2F2;stroke:#FFFFFF;stroke-miterlimit:10;}
	.st3{fill:none;stroke:#F1F2F2;stroke-width:6;stroke-miterlimit:10;}
</style>
<path class="st0" d="M244.1,286.9c0.1,0.3,0.2,0.6,0.2,0.9h-2.9c0-0.2,0-0.3,0-0.5C243.1,287.1,244.1,286.9,244.1,286.9z"/>
<path class="st0" d="M245.2,269.7c0,0,0.1,0.1,0.2,0.4c-0.5-0.3-1-0.6-1.5-0.9c0.1-0.2,0.1-0.5,0.2-0.8c0-0.1,0-0.2,0.1-0.3
	C244.6,268.6,244.9,269.2,245.2,269.7z"/>
<path class="st0" d="M246,270.5c-0.1,0.1-0.1,0.2-0.2,0.3c-0.1-0.3-0.3-0.5-0.4-0.7C245.7,270.2,245.9,270.4,246,270.5z"/>
<g>
	<g>
		<path class="st1" d="M345,66.9l37.6-0.1c0,0-15.5-3.4-31.8-3.7c-10,0-8.5,2.2-7.2,3.2C344,66.7,344.5,66.9,345,66.9z"/>
		<path class="st1" d="M389.6,66.8l8.9,0c0.7,0,1.2-0.8,0.8-1.4c-1.7-2.8-6-8.2-10.4,0.1C388.6,66.1,389,66.8,389.6,66.8z"/>
		<path class="st1" d="M227.3,68.8l45.7-0.1c0,0,0.7-7.7-7.9-11c-1.7-0.7-3.6-0.9-5.4-0.9l-19.2,0c-2.1,0-4.2,0.5-6.2,1.5
			C231.3,59.9,227.4,63,227.3,68.8z"/>
		<path class="st1" d="M213.6,73.8l73.3-0.1c0,0,1,12.5-12.2,17.4c-1.8,0.7-3.6,1-5.5,1l-38.1,0.1c-1.7,0-3.4-0.3-5.1-0.9
			C221.7,89.7,214.5,85.4,213.6,73.8z"/>
		<path class="st1" d="M288.4,85.8c-0.2,0.1,98.6-1.2,107.1-4.1c0,0,10.8-3.3,4.8-7.3c-1-0.7-2.2-1-3.4-1l-103.3,0.3
			C293.7,73.7,294.7,81.8,288.4,85.8z"/>
		<path class="st1" d="M442.6,66.8L405,66.8c0,0,15.4-3.5,31.8-3.7c10,0,8.5,2.2,7.2,3.2C443.7,66.6,443.1,66.8,442.6,66.8z"/>
		<path class="st1" d="M155.6,67.2L118,67.3c0,0,15.4-3.5,31.8-3.7c10,0,8.5,2.2,7.2,3.2C156.6,67,156.1,67.2,155.6,67.2z"/>
		<path class="st1" d="M111,67.3l-8.9,0c-0.7,0-1.2-0.8-0.8-1.4c1.7-2.8,6-8.3,10.4,0.1C112,66.6,111.6,67.3,111,67.3z"/>
		<path class="st1" d="M212.2,86c0.2,0.1-98.6-1-107.1-3.8c0,0-10.8-3.2-4.8-7.3c1-0.7,2.2-1,3.4-1l103.3,0
			C207,73.9,205.9,82,212.2,86z"/>
		<path class="st1" d="M58,67.4l37.6-0.1c0,0-15.5-3.4-31.8-3.7c-10,0-8.5,2.2-7.2,3.2C57,67.2,57.5,67.4,58,67.4z"/>
	</g>
	<path class="st1" d="M263.9,97.4l-26.8,0c0,0-2.2,0.2,0,1.6c2.2,1.4,2.2,7.8,2.2,7.8l-0.1,8.7c0,0,1.8,9.4,11.6,8.9
		c9.8-0.4,11-9.6,11-9.6s-0.2-5.1-0.1-8c0.1-2.9,0.7-7.1,2.1-8.1C265.3,97.7,263.9,97.4,263.9,97.4z M250.6,119.7
		c-3.7,0-6.6-3-6.6-6.6c0-3.7,3-6.6,6.6-6.6c3.7,0,6.6,3,6.6,6.6C257.2,116.8,254.3,119.7,250.6,119.7z"/>
</g>
<path class="st0" d="M245.6,329.2c0,0.8,0.1,1.6,0.1,2.4h-0.2C245.5,330.7,245.6,329.9,245.6,329.2z"/>
<path class="st2" d="M254.3,306.6c1.1,2.3,1.9,4.1,2.3,5.2c0,0,0,0,0,0c-2.8,9.4-1.1,19.8-1.1,19.8h-0.9c-0.3-2.8-0.9-5.7-2.2-11
	c-1-3.9-2.3-7.5-3.5-10.4c0.3-1.2,0.7-2.4,1.1-3.5c0.6-1.7,1.2-3.3,1.8-4.7C252.7,303.6,253.6,305.2,254.3,306.6z"/>
<path class="st0" d="M241.1,287.3c0.1-2.2,0.3-4.3,0.8-6.5c-0.2,1.8-0.3,3.8-0.5,6.4C241.3,287.3,241.2,287.3,241.1,287.3z"/>
<path class="st0" d="M245.5,270.1c-0.5-0.3-1-0.6-1.5-0.9c0.1-0.2,0.1-0.5,0.2-0.8c0-0.1,0-0.2,0.1-0.3c0.3,0.5,0.6,1,1,1.6
	C245.2,269.7,245.3,269.8,245.5,270.1z"/>
<path class="st2" d="M239.5,287.5c2.8,2.4,4.1,3.8,5.9,5.7c0.8,0.8,1.5,1.7,2.2,2.6c1.6,2,3,4.1,4.1,6.1c1,1.7,1.8,3.2,2.5,4.7
	c1.1,2.3,1.9,4.1,2.3,5.2c0.1,0,0.3,0.1,0.6,0.1h0c3.2,0.5,17.9,2.5,27.5-3c0,0,5.9-3,9.9-12.4c0,0,4.5-9.4,6.9-13.3
	c2.4-3.9,5.9-7.4,5.9-7.4s4.5-4.5,8.8-6.7c0.5-0.3,1-0.7,1.3-1.2c0.5-0.9,0.8-2.2-1.1-3.6c-3.3-2.3-12.4-7.5-24.2-8.8
	c-1-0.1-1.9-0.2-2.8-0.3c0.4-0.8,0.8-1.6,1.2-2.5c0,0,4.5-9.4,6.8-13.4c2.4-3.9,5.9-7.4,5.9-7.4s4.5-4.5,8.8-6.7
	c0.5-0.3,1-0.7,1.3-1.2c0.5-0.9,0.8-2.2-1.1-3.6c-3.3-2.3-12.4-7.5-24.2-8.8c-11.8-1.3-17.3-0.7-25.5,1.3c-8.2,2-18.9,8-22.8,18.1
	c-0.3,0.8-0.6,1.5-0.8,2.3c-1.6-0.7-3.3-1.2-4.8-1.5c-8.2-2-13.6-2.7-25.5-1.3c-11.8,1.3-21,6.5-24.2,8.8c-1.9,1.4-1.7,2.7-1.1,3.6
	c0.3,0.5,0.8,0.9,1.3,1.2c4.3,2.2,8.8,6.7,8.8,6.7s3.5,3.5,5.9,7.4c1,1.6,2.3,4.2,3.5,6.6c-9,2-15.7,5.9-18.5,7.8
	c-1.9,1.4-1.7,2.7-1.1,3.6c0.3,0.5,0.8,0.9,1.3,1.2c4.3,2.2,8.8,6.7,8.8,6.7s3.5,3.5,5.9,7.4c2.4,3.9,6.8,13.3,6.8,13.3
	c4,9.3,9.9,12.4,9.9,12.4c10.8,6.2,28.1,2.9,28.1,2.9c0.9,3.1,1.4,6.2,1.5,9.1c0,0.8,0.1,1.6,0.1,2.4c0.1,4.8-0.5,8.3-0.5,8.3h10
	c-0.2-3.6-0.3-5.9-0.6-8.3c-0.3-2.8-0.9-5.7-2.2-11c-1-3.9-2.3-7.5-3.5-10.4c-0.6-1.3-1.1-2.5-1.6-3.5l-1.2-2.2c0,0,1.3,2.6-0.5-0.9
	c-0.2-0.3-0.3-0.5-0.3-0.5c-0.2-0.3-0.4-0.7-0.6-1c-3.2-4.5-1.1-1.5-1.1-1.5c-1.6-2.4,1.7,2.5-1.3-2c-4.1-5.5-8.3-8.8-8.3-8.8
	c-0.8-0.7-1.7-1.4-2.5-2c-10.1-7.8-19.8-11.2-23.3-12.2c-0.9-0.3-1.4-0.4-1.4-0.4c0.4,0,0.8,0,1.1,0c7.9-0.1,14.3,2.5,14.3,2.5
	C229.5,279.8,235.7,284.1,239.5,287.5 M245.5,270.1c0.2,0.1,0.4,0.2,0.6,0.4 M244.2,268.5c0-0.1,0-0.2,0.1-0.3
	c-4.7-7.3-10.4-11.7-10.4-11.7c-13.5-11.3-27.2-14.6-27.2-14.6c8.5-0.3,15.4,2.4,15.4,2.4c6.4,1.9,11.8,5.4,15.6,8.5
	c1.5,1.2,2.8,2.3,3.8,3.2c1.6,1.5,2.5,2.6,2.5,2.6c0.8,0.8,1.6,1.7,2.4,2.6c-0.8,2.1-1.6,4.5-2.2,7c0.3,0.5,0.6,1,1,1.6
	c0,0,0.1,0.1,0.2,0.4 M252.5,239.7c0,0,9-10.4,21.9-14.3c0,0,7-2.8,15.4-2.4c0,0-13.7,3.2-27.2,14.6c0,0-3.9,3-7.9,8.2
	c-1.1-1.7-2.3-3.2-3.7-4.6C251.5,240.7,251.9,240.2,252.5,239.7z M266.7,281.4c0,0-3.9,3-7.9,8.2c-1.2,1.5-2.3,3.2-3.4,5.1
	c0,0-0.4,0.7-1.1,1.9c-0.3-2.2-0.8-4.8-1.8-8.5c-0.1-0.2-0.1-0.5-0.2-0.8c-0.4-1.8-0.9-3.4-1.5-5c-0.1-2.2-0.1-4.8,0.2-7.6
	c2.4,2.4,4.4,5.2,5.7,8.5c1.7-1.9,10.1-10.4,21.6-13.9c0,0,7-2.8,15.4-2.4C293.9,266.8,280.2,270,266.7,281.4z"/>
<path class="st0" d="M245.8,270.8c-0.1-0.3-0.3-0.5-0.4-0.7c0.2,0.1,0.4,0.2,0.6,0.4C246,270.6,245.9,270.7,245.8,270.8z"/>
<path class="st0" d="M256.5,311.8c0.1,0,0.3,0.1,0.6,0.1c-0.1,0.3-0.2,0.6-0.2,0.8C256.9,312.8,256.8,312.5,256.5,311.8z"/>
<line class="st3" x1="250.6" y1="136.4" x2="250.6" y2="203.3"/>
</svg>
