<?xml version="1.0" encoding="utf-8"?>
<!-- Generator: Adobe Illustrator 26.3.0, SVG Export Plug-In . SVG Version: 6.00 Build 0)  -->
<svg version="1.1" id="Layer_1" xmlns="http://www.w3.org/2000/svg" xmlns:xlink="http://www.w3.org/1999/xlink" x="0px" y="0px"
	 viewBox="0 0 500 400" style="enable-background:new 0 0 500 400;" xml:space="preserve">
<style type="text/css">
	.st0{fill:#F1F2F2;stroke:#F1F2F2;stroke-width:0.5;stroke-miterlimit:10;}
	.st1{fill:none;stroke:#F1F2F2;stroke-width:6;stroke-linecap:round;stroke-miterlimit:10;}
</style>
<g>
	<g>
		<g>
			<path class="st0" d="M385,268.1l26.6,26.5c0,0-8.5-13.3-19.9-25.1c-7.1-7.1-7.5-4.5-7.4-2.9C384.4,267.3,384.6,267.8,385,268.1z"
				/>
			<path class="st0" d="M416.6,299.6l6.3,6.3c0.5,0.5,1.4,0.3,1.5-0.4c0.8-3.2,1.6-10.1-7.5-7.3
				C416.3,298.4,416.1,299.2,416.6,299.6z"/>
			<path class="st0" d="M300.4,186.2l32.4,32.3c0,0,5.9-5,2.2-13.3c-0.8-1.7-1.9-3.2-3.2-4.5l-13.6-13.5c-1.5-1.5-3.3-2.7-5.4-3.3
				C309.5,182.7,304.5,182.2,300.4,186.2z"/>
			<path class="st0" d="M287.2,180.1l51.9,51.7c0,0-8.1,9.5-21,3.7c-1.7-0.8-3.2-1.9-4.6-3.2l-27-26.9c-1.2-1.2-2.2-2.6-3-4.2
				C281.6,197,279.6,188.9,287.2,180.1z"/>
			<path class="st0" d="M331.6,241.5c-0.2-0.1,70.6,68.9,78.6,72.8c0,0,10,5.3,8.6-1.8c-0.2-1.2-0.8-2.3-1.7-3.1l-73.2-72.8
				C343.9,236.6,338.9,243.1,331.6,241.5z"/>
			<path class="st0" d="M454.1,337l-26.6-26.5c0,0,13.4,8.5,25.1,19.8c7.1,7,4.5,7.5,2.9,7.4C455,337.6,454.5,337.4,454.1,337z"/>
			<path class="st0" d="M250.8,134.4l-26.6-26.5c0,0,13.4,8.5,25.1,19.8c7.1,7,4.5,7.5,2.9,7.4C251.7,135,251.2,134.8,250.8,134.4z"
				/>
			<path class="st0" d="M219.2,102.9l-6.3-6.3c-0.5-0.5-0.3-1.4,0.4-1.6c3.2-0.8,10.1-1.6,7.3,7.5
				C220.5,103.2,219.7,103.4,219.2,102.9z"/>
			<path class="st0" d="M277.6,187.7c0.1,0.2-69.1-70.4-73-78.4c0,0-5.3-9.9,1.7-8.6c1.2,0.2,2.3,0.8,3.1,1.7l73,73
				C282.4,175.4,276,180.4,277.6,187.7z"/>
			<path class="st0" d="M181.7,65.5L208.3,92c0,0-8.5-13.3-19.9-25.1c-7.1-7.1-7.5-4.5-7.4-2.9C181.1,64.6,181.3,65.1,181.7,65.5z"
				/>
		</g>
		<path class="st0" d="M306.1,232.3l-19-18.9c0,0-1.7-1.4-1.1,1.1c0.5,2.6-4,7.1-4,7.1l-6.2,6.1c0,0-5.3,7.9,1.9,14.5
			c7.3,6.6,14.6,1,14.6,1s3.5-3.7,5.6-5.7c2.1-2,5.5-4.5,7.2-4.2C306.8,233.6,306.1,232.3,306.1,232.3z M280.9,238.7
			c-2.6-2.6-2.6-6.8,0-9.4c2.6-2.6,6.8-2.6,9.4,0c2.6,2.6,2.6,6.8,0,9.4C287.7,241.3,283.5,241.3,280.9,238.7z"/>
	</g>
	<path class="st1" d="M210.9,206.9h-70c0,0-19.9-0.5-19.6-19.6c0.2-19.1,20.1-18.8,20.1-18.8s19.2,0,18.9,19.2"/>
	<path class="st1" d="M235.2,228.6H71.2c0,0-28.8-0.7-28.5-28.5c0.4-27.7,29.2-27.3,29.2-27.3s27.9,0,27.4,27.9"/>
	<path class="st1" d="M194.7,253.2h-93.3c0,0-21.5,0.5-21.2,21.2c0.3,20.6,21.7,20.3,21.7,20.3s20.7,0,20.4-20.7"/>
</g>
</svg>
