<?xml version="1.0" encoding="utf-8"?>
<!-- Generator: Adobe Illustrator 26.3.0, SVG Export Plug-In . SVG Version: 6.00 Build 0)  -->
<svg version="1.1" id="Layer_1" xmlns="http://www.w3.org/2000/svg" xmlns:xlink="http://www.w3.org/1999/xlink" x="0px" y="0px"
	 viewBox="0 0 500 400" style="enable-background:new 0 0 500 400;" xml:space="preserve">
<style type="text/css">
	.st0{fill:#F1F2F2;stroke:#F1F2F2;stroke-width:0.5;stroke-miterlimit:10;}
	.st1{fill:none;stroke:#F1F2F2;stroke-width:6;stroke-miterlimit:10;}
	.st2{fill:#FFFFFF;stroke:#FFFFFF;stroke-width:2;stroke-miterlimit:10;}
</style>
<g>
	<g>
		<g>
			<path class="st0" d="M344.7,96l37.6,0.1c0,0-15.4-3.5-31.8-3.8c-10,0-8.5,2.2-7.2,3.2C343.7,95.9,344.2,96,344.7,96z"/>
			<path class="st0" d="M389.3,96.2l8.9,0c0.7,0,1.2-0.8,0.8-1.4c-1.7-2.8-6-8.3-10.4,0.1C388.3,95.5,388.7,96.2,389.3,96.2z"/>
			<path class="st0" d="M227,97.4l45.7,0.1c0,0,0.7-7.7-7.9-11c-1.7-0.7-3.6-1-5.4-1l-19.2-0.1c-2.1,0-4.3,0.5-6.2,1.4
				C231,88.5,227.1,91.7,227,97.4z"/>
			<path class="st0" d="M213.3,102.4l73.3,0.2c0,0,0.9,12.5-12.3,17.4c-1.8,0.6-3.6,0.9-5.5,0.9l-38.1-0.1c-1.7,0-3.4-0.3-5.1-0.9
				C221.3,118.4,214.1,114,213.3,102.4z"/>
			<path class="st0" d="M288.1,114.7c-0.2,0.1,98.6-0.8,107.1-3.6c0,0,10.8-3.2,4.9-7.3c-1-0.7-2.2-1-3.4-1l-103.3-0.1
				C293.3,102.6,294.4,110.7,288.1,114.7z"/>
			<path class="st0" d="M442.3,96.3l-37.6-0.1c0,0,15.5-3.4,31.8-3.6c10,0,8.5,2.2,7.2,3.2C443.3,96.1,442.8,96.3,442.3,96.3z"/>
			<path class="st0" d="M155.3,95.6l-37.6-0.1c0,0,15.5-3.4,31.8-3.6c10,0,8.5,2.2,7.2,3.2C156.3,95.4,155.8,95.6,155.3,95.6z"/>
			<path class="st0" d="M110.6,95.5l-8.9,0c-0.7,0-1.2-0.8-0.8-1.4c1.7-2.8,6-8.2,10.4,0.1C111.7,94.8,111.3,95.5,110.6,95.5z"/>
			<path class="st0" d="M211.8,114.5c0.2,0.1-98.6-1.4-107.1-4.2c0,0-10.8-3.3-4.8-7.3c1-0.7,2.2-1,3.4-1l103.3,0.5
				C206.6,102.4,205.5,110.5,211.8,114.5z"/>
			<path class="st0" d="M57.7,95.3l37.6,0.1c0,0-15.4-3.5-31.8-3.8c-10,0-8.5,2.2-7.2,3.2C56.6,95.1,57.2,95.3,57.7,95.3z"/>
		</g>
		<path class="st0" d="M263.4,126.2l-26.8-0.1c0,0-2.2,0.2,0,1.6c2.2,1.5,2.2,7.8,2.2,7.8l-0.1,8.7c0,0,1.8,9.4,11.6,9
			c9.8-0.4,11.1-9.6,11.1-9.6s-0.2-5.1-0.1-8c0.1-2.9,0.7-7.1,2.2-8.1C264.9,126.5,263.4,126.2,263.4,126.2z M250.1,148.5
			c-3.7,0-6.6-3-6.6-6.7c0-3.7,3-6.6,6.7-6.6c3.7,0,6.6,3,6.6,6.7C256.7,145.5,253.7,148.5,250.1,148.5z"/>
	</g>
	<line class="st1" x1="250.1" y1="162.8" x2="250.3" y2="264.2"/>
	<path class="st2" d="M207.4,314.5L207.4,314.5c-4.7,0-8.6-3.8-8.6-8.6v-53.2c0-4.7,3.8-8.6,8.6-8.6l0,0c0.6,0,1,0.4,1,1v68.3
		C208.4,314,208,314.5,207.4,314.5z"/>
	<path class="st2" d="M189.7,306.5L189.7,306.5c-4.8,0-8.6-3.9-8.6-8.6v-37.2c0-4.8,3.9-8.6,8.6-8.6h0c0.5,0,1,0.4,1,1v52.5
		C190.7,306.1,190.3,306.5,189.7,306.5z"/>
	<path class="st2" d="M295.9,279.8L295.9,279.8c0,2.6-2.1,4.8-4.8,4.8h-82.6c-2.6,0-4.8-2.1-4.8-4.8l0,0c0-2.6,2.1-4.8,4.8-4.8h82.6
		C293.7,275,295.9,277.2,295.9,279.8z"/>
	<path class="st2" d="M293.3,314.5L293.3,314.5c4.7,0,8.6-3.8,8.6-8.6v-53.2c0-4.7-3.8-8.6-8.6-8.6h0c-0.6,0-1,0.4-1,1v68.3
		C292.3,314,292.7,314.5,293.3,314.5z"/>
	<path class="st2" d="M311,306.5L311,306.5c4.7,0,8.6-3.8,8.6-8.6v-37.3c0-4.7-3.8-8.6-8.6-8.6l0,0c-0.6,0-1,0.4-1,1v52.4
		C310,306.1,310.4,306.5,311,306.5z"/>
</g>
</svg>
